<svg width="259" height="43" viewBox="0 0 259 43" fill="none" xmlns="http://www.w3.org/2000/svg">
<rect width="43" height="43" rx="6" fill="#0C0B20"/>
<path d="M13.752 37.32C12.792 37.32 11.896 37.1493 11.064 36.808C10.2533 36.4667 9.60267 35.9547 9.112 35.272C8.62133 34.568 8.376 33.704 8.376 32.68C8.376 31.2293 8.86667 30.0667 9.848 29.192C10.8507 28.296 12.3867 27.848 14.456 27.848H19.32V27.176C19.32 26.4507 19.2027 25.8747 18.968 25.448C18.7547 25.0213 18.3493 24.712 17.752 24.52C17.176 24.328 16.3227 24.232 15.192 24.232C13.4 24.232 11.7253 24.4987 10.168 25.032V22.44C10.8507 22.1627 11.6827 21.9387 12.664 21.768C13.6453 21.5973 14.7013 21.512 15.832 21.512C18.0507 21.512 19.736 21.96 20.888 22.856C22.0613 23.752 22.648 25.2133 22.648 27.24V37H19.672L19.448 35.464C18.8293 36.0613 18.0613 36.52 17.144 36.84C16.248 37.16 15.1173 37.32 13.752 37.32ZM14.68 34.824C15.7253 34.824 16.632 34.6533 17.4 34.312C18.1893 33.9493 18.8293 33.4693 19.32 32.872V30.216H14.52C13.496 30.216 12.7493 30.4187 12.28 30.824C11.832 31.208 11.608 31.8053 11.608 32.616C11.608 33.4053 11.8747 33.9707 12.408 34.312C12.9413 34.6533 13.6987 34.824 14.68 34.824ZM27.796 18.664V15.784H31.604V18.664H27.796ZM28.084 37V24.488H25.78L26.1 21.832H31.572V37H28.084Z" fill="white"/>
<path d="M57.604 31.5V11.9H59.984V31.5H57.604ZM64.5616 31.5V17.5H66.6616L66.8016 20.076V31.5H64.5616ZM74.3896 31.5V24.332H76.6296V31.5H74.3896ZM74.3896 24.332C74.3896 22.9507 74.2309 21.896 73.9136 21.168C73.5962 20.44 73.1576 19.9453 72.5976 19.684C72.0376 19.404 71.4029 19.264 70.6936 19.264C69.4616 19.264 68.5002 19.7027 67.8096 20.58C67.1376 21.4387 66.8016 22.6613 66.8016 24.248H65.7096C65.7096 22.7733 65.9242 21.504 66.3536 20.44C66.7829 19.376 67.4082 18.564 68.2296 18.004C69.0509 17.444 70.0402 17.164 71.1976 17.164C72.2989 17.164 73.2509 17.388 74.0536 17.836C74.8749 18.2653 75.5096 18.956 75.9576 19.908C76.4242 20.86 76.6482 22.1107 76.6296 23.66V24.332H74.3896ZM85.4388 31.836C84.0762 31.836 83.0215 31.4813 82.2748 30.772C81.5282 30.0627 81.1548 29.064 81.1548 27.776V13.132H83.3948V27.552C83.3948 28.2613 83.5815 28.812 83.9548 29.204C84.3468 29.5773 84.8882 29.764 85.5788 29.764C85.8028 29.764 86.0175 29.736 86.2228 29.68C86.4468 29.6053 86.7362 29.4373 87.0908 29.176L87.9588 30.996C87.4735 31.3133 87.0348 31.528 86.6428 31.64C86.2508 31.7707 85.8495 31.836 85.4388 31.836ZM78.7188 19.488V17.5H87.5948V19.488H78.7188ZM96.8068 31.836C95.4442 31.836 94.2402 31.528 93.1948 30.912C92.1495 30.2773 91.3282 29.4093 90.7308 28.308C90.1522 27.2067 89.8628 25.9373 89.8628 24.5C89.8628 23.0627 90.1522 21.7933 90.7308 20.692C91.3282 19.5907 92.1402 18.732 93.1668 18.116C94.2122 17.4813 95.4068 17.164 96.7508 17.164C98.0575 17.164 99.1868 17.4907 100.139 18.144C101.091 18.7787 101.828 19.6747 102.351 20.832C102.874 21.9893 103.135 23.352 103.135 24.92H91.5708L92.1308 24.444C92.1308 25.564 92.3268 26.5253 92.7188 27.328C93.1295 28.1307 93.6988 28.7467 94.4268 29.176C95.1548 29.5867 95.9855 29.792 96.9188 29.792C97.9082 29.792 98.7388 29.5587 99.4108 29.092C100.102 28.6253 100.634 28.0093 101.007 27.244L102.939 28.224C102.584 28.952 102.108 29.5867 101.511 30.128C100.932 30.6693 100.242 31.0893 99.4388 31.388C98.6548 31.6867 97.7775 31.836 96.8068 31.836ZM92.2708 23.492L91.6828 23.044H101.343L100.755 23.52C100.755 22.624 100.578 21.8493 100.223 21.196C99.8682 20.5427 99.3922 20.0387 98.7948 19.684C98.1975 19.3293 97.5068 19.152 96.7228 19.152C95.9575 19.152 95.2295 19.3293 94.5388 19.684C93.8668 20.0387 93.3162 20.5427 92.8868 21.196C92.4762 21.8307 92.2708 22.596 92.2708 23.492ZM107.192 23.912C107.192 22.4 107.481 21.1773 108.06 20.244C108.639 19.292 109.376 18.592 110.272 18.144C111.187 17.6773 112.148 17.444 113.156 17.444V19.544C112.335 19.544 111.541 19.684 110.776 19.964C110.029 20.2253 109.413 20.664 108.928 21.28C108.443 21.896 108.2 22.736 108.2 23.8L107.192 23.912ZM105.96 31.5V17.5H108.2V31.5H105.96ZM124.045 31.5L123.933 29.204V24.108C123.933 23.0067 123.812 22.1013 123.569 21.392C123.326 20.664 122.944 20.1133 122.421 19.74C121.898 19.3667 121.217 19.18 120.377 19.18C119.612 19.18 118.949 19.3387 118.389 19.656C117.848 19.9547 117.4 20.44 117.045 21.112L115.029 20.328C115.384 19.6747 115.813 19.1147 116.317 18.648C116.821 18.1627 117.409 17.7987 118.081 17.556C118.753 17.2947 119.518 17.164 120.377 17.164C121.684 17.164 122.757 17.4253 123.597 17.948C124.456 18.452 125.1 19.208 125.529 20.216C125.958 21.2053 126.164 22.4373 126.145 23.912L126.117 31.5H124.045ZM119.845 31.836C118.202 31.836 116.914 31.4627 115.981 30.716C115.066 29.9507 114.609 28.896 114.609 27.552C114.609 26.1333 115.076 25.0507 116.009 24.304C116.961 23.5387 118.286 23.156 119.985 23.156H123.989V25.032H120.489C119.182 25.032 118.249 25.2467 117.689 25.676C117.148 26.1053 116.877 26.7213 116.877 27.524C116.877 28.252 117.148 28.8307 117.689 29.26C118.23 29.6707 118.986 29.876 119.957 29.876C120.76 29.876 121.46 29.708 122.057 29.372C122.654 29.0173 123.112 28.5227 123.429 27.888C123.765 27.2347 123.933 26.4693 123.933 25.592H124.885C124.885 27.496 124.456 29.0173 123.597 30.156C122.738 31.276 121.488 31.836 119.845 31.836ZM135.938 31.836C134.557 31.836 133.334 31.528 132.27 30.912C131.206 30.2773 130.376 29.4093 129.778 28.308C129.181 27.2067 128.882 25.9373 128.882 24.5C128.882 23.0627 129.172 21.7933 129.75 20.692C130.348 19.5907 131.178 18.732 132.242 18.116C133.306 17.4813 134.52 17.164 135.882 17.164C137.226 17.164 138.43 17.472 139.494 18.088C140.558 18.704 141.37 19.572 141.93 20.692L139.886 21.616C139.513 20.8693 138.972 20.2907 138.262 19.88C137.553 19.4507 136.741 19.236 135.826 19.236C134.912 19.236 134.1 19.46 133.39 19.908C132.7 20.356 132.149 20.9813 131.738 21.784C131.346 22.568 131.15 23.4733 131.15 24.5C131.15 25.5267 131.346 26.4413 131.738 27.244C132.149 28.028 132.709 28.644 133.418 29.092C134.146 29.54 134.968 29.764 135.882 29.764C136.797 29.764 137.609 29.5307 138.318 29.064C139.046 28.5973 139.597 27.944 139.97 27.104L142.014 28.028C141.454 29.2227 140.642 30.156 139.578 30.828C138.514 31.5 137.301 31.836 135.938 31.836ZM150.107 31.836C148.744 31.836 147.689 31.4813 146.943 30.772C146.196 30.0627 145.823 29.064 145.823 27.776V13.132H148.063V27.552C148.063 28.2613 148.249 28.812 148.623 29.204C149.015 29.5773 149.556 29.764 150.247 29.764C150.471 29.764 150.685 29.736 150.891 29.68C151.115 29.6053 151.404 29.4373 151.759 29.176L152.627 30.996C152.141 31.3133 151.703 31.528 151.311 31.64C150.919 31.7707 150.517 31.836 150.107 31.836ZM143.387 19.488V17.5H152.263V19.488H143.387ZM155.565 31.5V17.5H157.805V31.5H155.565ZM156.713 14.252C156.34 14.252 156.013 14.112 155.733 13.832C155.453 13.552 155.313 13.2253 155.313 12.852C155.313 12.46 155.453 12.1333 155.733 11.872C156.013 11.592 156.34 11.452 156.713 11.452C157.105 11.452 157.432 11.592 157.693 11.872C157.973 12.1333 158.113 12.46 158.113 12.852C158.113 13.2253 157.973 13.552 157.693 13.832C157.432 14.112 157.105 14.252 156.713 14.252ZM168.121 31.836C166.758 31.836 165.545 31.528 164.481 30.912C163.435 30.2773 162.614 29.4093 162.017 28.308C161.419 27.2067 161.121 25.9373 161.121 24.5C161.121 23.0627 161.41 21.7933 161.989 20.692C162.586 19.5907 163.407 18.732 164.453 18.116C165.517 17.4813 166.721 17.164 168.065 17.164C169.446 17.164 170.659 17.4813 171.705 18.116C172.769 18.732 173.59 19.5907 174.169 20.692C174.766 21.7933 175.065 23.0627 175.065 24.5C175.065 25.9373 174.766 27.2067 174.169 28.308C173.59 29.4093 172.778 30.2773 171.733 30.912C170.687 31.528 169.483 31.836 168.121 31.836ZM168.121 29.764C169.054 29.764 169.866 29.54 170.557 29.092C171.247 28.644 171.789 28.028 172.181 27.244C172.591 26.46 172.797 25.5453 172.797 24.5C172.797 23.4547 172.591 22.54 172.181 21.756C171.789 20.972 171.238 20.356 170.529 19.908C169.819 19.46 168.998 19.236 168.065 19.236C167.15 19.236 166.338 19.46 165.629 19.908C164.938 20.356 164.387 20.972 163.977 21.756C163.585 22.54 163.389 23.4547 163.389 24.5C163.389 25.5267 163.585 26.4413 163.977 27.244C164.387 28.028 164.947 28.644 165.657 29.092C166.385 29.54 167.206 29.764 168.121 29.764ZM178.175 31.5V17.5H180.275L180.415 20.076V31.5H178.175ZM188.003 31.5V24.332H190.243V31.5H188.003ZM188.003 24.332C188.003 22.9507 187.844 21.896 187.527 21.168C187.21 20.44 186.771 19.9453 186.211 19.684C185.651 19.404 185.016 19.264 184.307 19.264C183.075 19.264 182.114 19.7027 181.423 20.58C180.751 21.4387 180.415 22.6613 180.415 24.248H179.323C179.323 22.7733 179.538 21.504 179.967 20.44C180.396 19.376 181.022 18.564 181.843 18.004C182.664 17.444 183.654 17.164 184.811 17.164C185.912 17.164 186.864 17.388 187.667 17.836C188.488 18.2653 189.123 18.956 189.571 19.908C190.038 20.86 190.262 22.1107 190.243 23.66V24.332H188.003ZM206.894 31.836C205.531 31.836 204.318 31.528 203.254 30.912C202.209 30.2773 201.387 29.4093 200.79 28.308C200.193 27.2067 199.894 25.9373 199.894 24.5C199.894 23.0627 200.183 21.7933 200.762 20.692C201.359 19.5907 202.181 18.732 203.226 18.116C204.29 17.4813 205.494 17.164 206.838 17.164C208.219 17.164 209.433 17.4813 210.478 18.116C211.542 18.732 212.363 19.5907 212.942 20.692C213.539 21.7933 213.838 23.0627 213.838 24.5C213.838 25.9373 213.539 27.2067 212.942 28.308C212.363 29.4093 211.551 30.2773 210.506 30.912C209.461 31.528 208.257 31.836 206.894 31.836ZM206.894 29.764C207.827 29.764 208.639 29.54 209.33 29.092C210.021 28.644 210.562 28.028 210.954 27.244C211.365 26.46 211.57 25.5453 211.57 24.5C211.57 23.4547 211.365 22.54 210.954 21.756C210.562 20.972 210.011 20.356 209.302 19.908C208.593 19.46 207.771 19.236 206.838 19.236C205.923 19.236 205.111 19.46 204.402 19.908C203.711 20.356 203.161 20.972 202.75 21.756C202.358 22.54 202.162 23.4547 202.162 24.5C202.162 25.5267 202.358 26.4413 202.75 27.244C203.161 28.028 203.721 28.644 204.43 29.092C205.158 29.54 205.979 29.764 206.894 29.764ZM218.348 31.5V15.904C218.348 14.448 218.684 13.356 219.356 12.628C220.047 11.8813 221.092 11.508 222.492 11.508C222.866 11.508 223.286 11.5733 223.752 11.704C224.219 11.8347 224.714 12.0213 225.236 12.264L224.396 14.028C223.967 13.86 223.603 13.7293 223.304 13.636C223.006 13.5427 222.754 13.496 222.548 13.496C221.895 13.496 221.4 13.7107 221.064 14.14C220.747 14.5507 220.588 15.1947 220.588 16.072V31.5H218.348ZM215.772 19.432V17.5H224.648V19.432H215.772ZM248.426 31.5L240.558 11.9H242.938L250.918 31.5H248.426ZM232.494 31.5L240.474 11.9H242.882L235.014 31.5H232.494ZM236.274 25.928V23.8H247.166V25.928H236.274ZM253.795 31.5V11.9H256.175V31.5H253.795Z" fill="#0C0B20"/>
</svg>
